M48
; DRILL file {KiCad 9.0.6} date 2025-12-30T20:24:14+0200
; FORMAT={-:-/ absolute / metric / decimal}
; #@! TF.CreationDate,2025-12-30T20:24:14+02:00
; #@! TF.GenerationSoftware,Kicad,Pcbnew,9.0.6
; #@! TF.FileFunction,NonPlated,1,2,NPTH
FMAT,2
METRIC
; #@! TA.AperFunction,NonPlated,NPTH,ComponentDrill
T1C1.700
; #@! TA.AperFunction,NonPlated,NPTH,ComponentDrill
T2C4.000
%
G90
G05
T1
X170.815Y-104.775
X170.815Y-123.825
X180.975Y-104.775
X180.975Y-123.825
X189.865Y-104.775
X189.865Y-123.825
X200.025Y-104.775
X200.025Y-123.825
X208.915Y-104.775
X208.915Y-123.825
X219.075Y-104.775
X219.075Y-123.825
X227.965Y-104.775
X227.965Y-123.825
X238.125Y-104.775
X238.125Y-123.825
X247.015Y-104.775
X247.015Y-123.825
X257.175Y-104.775
X257.175Y-123.825
T2
X175.895Y-104.775
X175.895Y-123.825
X194.945Y-104.775
X194.945Y-123.825
X213.995Y-104.775
X213.995Y-123.825
X233.045Y-104.775
X233.045Y-123.825
X252.095Y-104.775
X252.095Y-123.825
M30
