M48
; DRILL file {KiCad 9.0.6} date 2025-12-30T20:24:14+0200
; FORMAT={-:-/ absolute / metric / decimal}
; #@! TF.CreationDate,2025-12-30T20:24:14+02:00
; #@! TF.GenerationSoftware,Kicad,Pcbnew,9.0.6
; #@! TF.FileFunction,Plated,1,2,PTH
FMAT,2
METRIC
; #@! TA.AperFunction,Plated,PTH,ComponentDrill
T1C0.889
; #@! TA.AperFunction,Plated,PTH,ComponentDrill
T2C1.500
%
G90
G05
T1
X206.216Y-74.456
X206.216Y-76.996
X206.216Y-79.536
X206.216Y-82.076
X206.216Y-84.616
X206.216Y-87.156
X206.216Y-89.696
X221.456Y-74.456
X221.456Y-76.996
X221.456Y-79.536
X221.456Y-82.076
X221.456Y-84.616
X221.456Y-87.156
X221.456Y-89.696
T2
X172.085Y-102.235
X172.085Y-121.285
X178.435Y-99.695
X178.435Y-118.745
X191.135Y-102.235
X191.135Y-121.285
X197.485Y-99.695
X197.485Y-118.745
X210.185Y-102.235
X210.185Y-121.285
X216.535Y-99.695
X216.535Y-118.745
X229.235Y-102.235
X229.235Y-121.285
X235.585Y-99.695
X235.585Y-118.745
X248.285Y-102.235
X248.285Y-121.285
X254.635Y-99.695
X254.635Y-118.745
M30
